<svg xmlns="http://www.w3.org/2000/svg" viewBox="0 0 1600 1000"><defs><linearGradient id="s" y2="1"><stop stop-color="#49a8df"/><stop offset="1" stop-color="#c8edfb"/></linearGradient><linearGradient id="sea" y2="1"><stop stop-color="#39a9c7"/><stop offset="1" stop-color="#087a9c"/></linearGradient></defs><rect width="1600" height="1000" fill="url(#s)"/><path d="M0 515h1600v310H0z" fill="url(#sea)"/><path d="M0 785q220-65 440-12t430 0 390-10 340 18v219H0z" fill="#f3d8a4"/><path d="M0 820q210-45 410-5t410 0 410 0 370 0" stroke="#fff" stroke-width="18" fill="none" opacity=".75"/><g fill="#fff" opacity=".86"><ellipse cx="330" cy="180" rx="145" ry="46"/><ellipse cx="445" cy="195" rx="100" ry="34"/><ellipse cx="1180" cy="220" rx="170" ry="52"/></g><g transform="translate(1120 530)"><path d="M0 130h250l-22 35H18z" fill="#d9d2bc"/><rect x="42" y="25" width="165" height="110" fill="#f4eee0"/><path d="M28 25h195L126-28z" fill="#e85f4f"/><rect x="106" y="68" width="38" height="67" fill="#5b92a4"/><rect x="58" y="58" width="30" height="28" fill="#8fc5d8"/><rect x="162" y="58" width="30" height="28" fill="#8fc5d8"/></g><g transform="translate(270 725)"><path d="M0 80h260" stroke="#b8a77f" stroke-width="12"/><path d="M35 80V0M95 80V0M155 80V0M215 80V0" stroke="#b8a77f" stroke-width="10"/><path d="M20 0h210" stroke="#d7c69b" stroke-width="12"/></g><g fill="#66a45e"><path d="M0 760q160-80 330-20l-10 80H0zM1260 760q180-90 340-10v95h-340z"/></g><g fill="none" stroke="#bfeaf4" stroke-width="5" opacity=".8"><path d="M0 620q180-30 360 0t360 0 360 0 360 0"/><path d="M0 690q210-25 420 0t420 0 420 0 340 0"/></g></svg>