<svg xmlns="http://www.w3.org/2000/svg" viewBox="0 0 512 512">
  <defs>
    <linearGradient id="sky" x1="0" y1="0" x2="0" y2="1"><stop stop-color="#38bdf8"/><stop offset="1" stop-color="#075985"/></linearGradient>
    <linearGradient id="hill" x1="0" y1="0" x2="1" y2="1"><stop stop-color="#a3e635"/><stop offset="1" stop-color="#16a34a"/></linearGradient>
    <linearGradient id="sea" x1="0" y1="0" x2="1" y2="1"><stop stop-color="#22d3ee"/><stop offset="1" stop-color="#1d4ed8"/></linearGradient>
    <linearGradient id="cloud" x1="0" y1="0" x2="0" y2="1"><stop stop-color="#ffffff"/><stop offset="1" stop-color="#cbd5e1"/></linearGradient>
    <filter id="shadow" x="-30%" y="-30%" width="160%" height="160%"><feDropShadow dx="0" dy="12" stdDeviation="12" flood-opacity=".25"/></filter>
  </defs>
  <rect x="12" y="12" width="488" height="488" rx="108" fill="url(#sky)"/>
  <circle cx="164" cy="156" r="78" fill="#facc15"/>
  <path d="M12 338 C100 286 160 298 236 326 C310 353 386 310 500 326 L500 500 L12 500Z" fill="url(#hill)"/>
  <path d="M12 402 C98 362 163 386 237 414 C311 442 391 380 500 400 L500 500 L12 500Z" fill="url(#sea)"/>
  <path d="M12 455 C98 420 158 449 234 470 C316 493 397 434 500 452 L500 500 L12 500Z" fill="#123b8f" opacity=".92"/>
  <g filter="url(#shadow)">
    <path d="M188 278c0-36 29-66 66-66 12 0 23 3 33 8 17-36 54-61 97-61 59 0 107 48 107 107 0 5 0 10-1 15 14 12 22 29 22 49 0 36-29 65-65 65H211c-40 0-72-32-72-72 0-24 12-46 31-59 5 9 11 14 18 14z" fill="url(#cloud)"/>
  </g>
  <rect x="12" y="12" width="488" height="488" rx="108" fill="none" stroke="#ffffff" stroke-opacity=".18" stroke-width="6"/>
</svg>
